<?xml version="1.0" encoding="UTF-8"?><svg id="Layer_2" xmlns="http://www.w3.org/2000/svg" viewBox="0 0 900.61 102.08"><defs><style>.cls-1{fill:#fff;}.cls-2{fill:#0673ff;}</style></defs><g id="Layer_1-2"><g><path class="cls-2" d="M65.26,4.6c7.23,0,13.81,2.76,18.75,7.29,5.54,5.08,9.02,12.37,9.02,20.48h0v37.49c0,15.33-12.43,27.77-27.77,27.77H26.24c-7.4-.4-14.03-3.7-18.77-8.78-4.63-4.97-7.47-11.63-7.47-18.95V32.37C0,17.03,12.43,4.6,27.77,4.6h37.49ZM26.92,56.64c-.67-.18-1.37-.14-2.01,.08-.48,.17-.93,.45-1.3,.82l-2.11,2.13-7.41,7.45c-2.02,2.03-.82,5.49,2.02,5.84,1.51,.19,3.01,.37,4.51,.56,.78,.1,1.48,.45,2.01,.98,.53,.52,.88,1.22,.99,2,.2,1.5,.39,3.01,.58,4.51,.37,2.84,3.84,4.02,5.86,1.99l8.31-8.35,1.21-1.22c.34-.35,.61-.76,.78-1.21h0c.25-.67,.3-1.41,.11-2.12l-1.69-6.34-.64-2.4c-.16-.6-.47-1.13-.9-1.55-.21-.21-.45-.4-.71-.55-.26-.15-.55-.26-.84-.34-2.91-.76-5.83-1.52-8.75-2.28Zm17.9-18.01c-1.18-.31-2.45,.03-3.31,.9l-2.06,2.08-2.32,2.33-5.14,5.17c-2.02,2.03-.82,5.49,2.02,5.85,1.51,.19,3.01,.37,4.51,.56,.78,.1,1.48,.45,2.01,.98,.25,.25,.47,.54,.63,.86,.18,.34,.3,.73,.36,1.14,.2,1.5,.38,3.01,.58,4.51,.37,2.84,3.84,4.02,5.86,1.99l5.79-5.82,.95-.95,2.78-2.79h0c.86-.87,1.2-2.14,.88-3.32l-1.59-5.94-.54-2.02-.21-.78c-.16-.6-.48-1.13-.9-1.55-.14-.14-.29-.27-.46-.39-.33-.23-.7-.4-1.1-.5-.91-.23-1.81-.47-2.72-.71-2.01-.52-4.02-1.05-6.03-1.58Zm17.9-18.01c-1.18-.31-2.45,.03-3.31,.9l-4.24,4.26-5.28,5.31c-2.02,2.03-.82,5.49,2.02,5.85,1.25,.15,2.49,.3,3.74,.46,.26,.03,.51,.06,.77,.1,.78,.1,1.48,.45,2.01,.98,.53,.52,.89,1.22,.99,2,.11,.88,.22,1.75,.34,2.63,.08,.63,.16,1.25,.24,1.88,.36,2.84,3.83,4.02,5.86,1.99l4.17-4.2,5.35-5.37h0c.86-.87,1.2-2.14,.88-3.32l-2.33-8.74c-.16-.6-.47-1.13-.9-1.55-.43-.42-.96-.74-1.56-.89-2.91-.76-5.83-1.52-8.75-2.28Z"/><path class="cls-1" d="M226.37,52.08v42.33h-23.62V53.78c0-5.41-.98-9.52-2.93-12.23-1.79-2.46-4.53-3.67-8.42-3.67s-7.23,1.44-9.67,4.38c-2.53,3.05-3.82,7.5-3.82,13.2v38.94h-23.61V53.78c0-5.4-1.02-9.51-3-12.22-1.83-2.47-4.66-3.68-8.66-3.68s-7.08,1.44-9.52,4.38c-2.53,3.05-3.82,7.5-3.82,13.2v38.94h-23.6V18.8h21.08l.22,1.32c-.14,.1-.28,.19-.41,.3-3.22,2.46-6,5.44-8.29,8.85l3.43,2.29c2.02-3.04,4.49-5.69,7.36-7.87,3.82-2.94,8.37-5.03,13.14-6.07v-.06c1.79-.32,3.68-.47,5.65-.47,10.28,0,18.07,3.54,23.25,10.53,2.42-2.75,5.33-5.03,8.72-6.8,4.66-2.47,9.83-3.72,15.35-3.72,9.92,0,17.68,3.08,23.11,9.12,5.35,5.95,8.05,14.66,8.05,25.86Z"/><path class="cls-1" d="M304.65,18.8V94.41h-21.19l-.29-2.4c.71-.61,1.4-1.25,2.06-1.92,2.84-2.9,5.18-6.24,6.95-9.93l-3.72-1.77c-1.57,3.28-3.64,6.25-6.17,8.83-2.53,2.58-5.52,4.75-8.79,6.39-.16,.08-.33,.17-.49,.22-3.68,1.51-7.78,2.28-12.23,2.28-9.56,0-17.09-3.08-22.37-9.14-5.18-5.95-7.82-14.65-7.82-25.85V18.8h23.48V59.43c0,5.39,1.04,9.48,3.1,12.16,1.91,2.5,4.99,3.72,9.38,3.72s7.6-1.46,10.32-4.47c2.75-3.04,4.15-7.45,4.15-13.11V18.8h23.62Z"/><path class="cls-1" d="M387.65,18.8l-43.96,75.61h-25.76l-11.67-75.61h24.88l5.81,47.06,25.82-47.06h24.88Z"/><path class="cls-1" d="M509.38,52.08v42.33h-23.62V53.78c0-5.41-.99-9.52-2.94-12.23-1.77-2.46-4.52-3.65-8.42-3.65s-7.23,1.43-9.66,4.37c-2.53,3.05-3.82,7.49-3.82,13.2v38.94h-23.62V53.78c0-5.4-1-9.51-3-12.22-1.81-2.47-4.64-3.67-8.64-3.67s-7.09,1.43-9.54,4.37c-2.53,3.05-3.81,7.5-3.81,13.2v38.94h-23.62V18.8h21.08l.19,1.14c-.28,.21-.55,.43-.81,.65-3.11,2.61-5.77,5.7-7.89,9.21l3.53,2.13c1.64-2.71,3.64-5.14,5.95-7.24h0c.43-.38,.85-.76,1.3-1.13,.06-.05,.11-.11,.18-.15,.41-.34,.85-.66,1.29-.99,.98-.7,2.02-1.35,3.11-1.94,4.11-2.24,8.9-3.38,14.25-3.38,10.28,0,18.08,3.54,23.25,10.53,2.42-2.73,5.35-5.01,8.74-6.82,4.66-2.46,9.82-3.71,15.35-3.71,9.91,0,17.68,3.08,23.11,9.12,5.35,5.96,8.05,14.66,8.05,25.86Z"/><path class="cls-1" d="M537.04,46.91c.97-2.75,2.49-4.85,4.56-6.38,2.93-2.16,6.22-3.2,10.09-3.2s7.15,1.11,9.76,3.41c1.87,1.64,3.11,3.68,3.72,6.17h-28.13Zm47.64-11.53c-3.19-5.63-7.69-10.14-13.4-13.4-5.67-3.24-12.27-4.89-19.59-4.89-7.8,0-14.72,1.72-20.54,5.11-5.84,3.41-10.47,8.22-13.75,14.29-3.27,6.03-4.92,12.98-4.92,20.67s1.69,14.45,5.02,20.31c3.35,5.9,8.04,10.53,13.93,13.77,5.85,3.23,12.63,4.86,20.13,4.86,6.02,0,11.53-1.13,16.35-3.35,4.82-2.24,8.94-5.36,12.26-9.27,3.28-3.9,5.67-8.3,7.1-13.08l1.06-3.56h-23.84l-.76,1.61c-1,2.17-2.52,3.9-4.59,5.28-2.02,1.33-4.62,2.02-7.72,2.02-4.23,0-7.72-1.29-10.65-3.94-2.28-2.06-3.74-4.71-4.42-8.04h52.68l.19-2.57c.1-1.25,.16-2.46,.21-3.63,.05-1.17,.08-2.28,.08-3.35,0-6.87-1.62-13.2-4.82-18.83Z"/><path class="cls-1" d="M667.06,52.08v42.33h-23.62V53.78c0-5.39-1.04-9.48-3.1-12.17-1.91-2.5-4.95-3.71-9.25-3.71s-7.74,1.46-10.46,4.47c-2.76,3.04-4.15,7.45-4.15,13.11v38.94h-23.63V18.8h21.2l.26,2.21c-2.91,2.35-5.46,5.13-7.54,8.27l3.43,2.28c1.36-2.05,2.94-3.92,4.7-5.58v.03c.19-.21,.39-.41,.59-.59,.03-.03,.05-.05,.1-.08,1.59-1.59,3.39-2.98,5.39-4.18,2.91-1.73,6.17-2.93,9.73-3.54,1.96-.34,4.01-.52,6.17-.52,9.47,0,16.96,3.08,22.29,9.14,5.25,5.96,7.9,14.66,7.9,25.84Z"/><path class="cls-1" d="M705.77,39.45v27.89c0,3.33,.78,4.51,1.24,4.91,.54,.45,1.98,1.22,5.74,1.22h11.53v20.94h-15.06c-7.96,0-14.48-2.02-19.4-5.99-5.08-4.11-7.67-11.24-7.67-21.22v-27.76h-12.01V18.8h12.31l2.12-18.8h21.2V15.33h-10.33v3.42h10.33v.04h18.93v20.65h-18.93Z"/><g><path class="cls-1" d="M738.88,34.08l8.38-22.92h4.72l8.38,22.92h-4.45l-1.83-5.3h-8.94l-1.87,5.3h-4.39Zm7.4-8.58h6.65l-3.34-9.53-3.31,9.53Zm16.93,8.58V17.84h3.7l.33,2.75c.5-.96,1.22-1.72,2.16-2.29,.96-.57,2.08-.85,3.37-.85,2.01,0,3.57,.63,4.68,1.9,1.11,1.27,1.67,3.12,1.67,5.57v9.17h-4.19v-8.78c0-1.4-.28-2.47-.85-3.21-.57-.74-1.45-1.11-2.65-1.11s-2.15,.41-2.92,1.24c-.74,.83-1.11,1.99-1.11,3.47v8.38h-4.19Zm9.44,30l8.38-22.92h4.72l8.38,22.92h-4.45l-1.83-5.3h-8.94l-1.87,5.3h-4.39Zm7.4-8.58h6.65l-3.34-9.53-3.31,9.53Zm22.71,8.97c-2.03,0-3.6-.63-4.72-1.9-1.09-1.27-1.64-3.12-1.64-5.57v-9.17h4.16v8.78c0,1.4,.28,2.47,.85,3.21,.57,.74,1.46,1.11,2.68,1.11,1.16,0,2.11-.41,2.85-1.24,.76-.83,1.15-1.99,1.15-3.47v-8.38h4.19v16.24h-3.7l-.33-2.75c-.5,.96-1.23,1.72-2.19,2.29-.94,.57-2.04,.85-3.31,.85Zm21.07-.39c-1.7,0-3.07-.41-4.09-1.24-1.03-.83-1.54-2.3-1.54-4.42v-7.07h-2.78v-3.5h2.78l.49-4.36h3.7v4.36h4.39v3.5h-4.39v7.11c0,.79,.16,1.33,.49,1.64,.35,.28,.94,.43,1.77,.43h2.03v3.57h-2.85Zm13.92,.39c-1.57,0-2.99-.36-4.26-1.08-1.24-.72-2.24-1.71-2.98-2.98-.72-1.29-1.08-2.77-1.08-4.45s.37-3.15,1.11-4.42c.74-1.29,1.74-2.29,2.98-3.01,1.27-.72,2.68-1.08,4.26-1.08s2.95,.36,4.19,1.08c1.27,.72,2.26,1.72,2.98,3.01,.74,1.27,1.11,2.74,1.11,4.42s-.37,3.17-1.11,4.45c-.72,1.27-1.71,2.26-2.98,2.98-1.27,.72-2.67,1.08-4.22,1.08Zm0-3.63c1.09,0,2.04-.4,2.85-1.21,.81-.83,1.21-2.05,1.21-3.67s-.4-2.83-1.21-3.63c-.81-.83-1.75-1.24-2.82-1.24s-2.07,.41-2.88,1.24c-.79,.81-1.18,2.02-1.18,3.63s.39,2.84,1.18,3.67c.81,.81,1.76,1.21,2.85,1.21Zm17.92-1.6c-.79,0-1.52-.09-2.19-.26l-1.21,1.21c.37,.2,.87,.36,1.51,.49,.63,.13,1.66,.26,3.08,.39,2.16,.2,3.73,.71,4.71,1.54,.98,.83,1.47,1.98,1.47,3.44,0,.96-.26,1.87-.79,2.72-.52,.87-1.33,1.57-2.42,2.1-1.09,.55-2.49,.82-4.19,.82-2.31,0-4.18-.44-5.6-1.31-1.42-.85-2.13-2.14-2.13-3.86,0-1.46,.71-2.73,2.13-3.8-.44-.2-.82-.4-1.15-.62-.3-.22-.58-.45-.82-.69v-.75l2.85-3.01c-1.27-1.11-1.9-2.54-1.9-4.29,0-1.09,.26-2.08,.79-2.98,.55-.9,1.31-1.6,2.29-2.13,.98-.52,2.17-.79,3.57-.79,.92,0,1.77,.13,2.55,.39h6.16v2.55l-2.78,.2c.44,.83,.65,1.75,.65,2.75,0,1.09-.26,2.08-.79,2.98-.52,.9-1.29,1.6-2.29,2.13-.98,.52-2.15,.79-3.5,.79Zm0-3.21c.85,0,1.55-.23,2.1-.69,.57-.46,.85-1.11,.85-1.96s-.28-1.51-.85-1.96c-.55-.46-1.24-.69-2.1-.69-.9,0-1.62,.23-2.16,.69-.55,.46-.82,1.11-.82,1.96s.27,1.51,.82,1.96c.54,.46,1.27,.69,2.16,.69Zm-3.93,10.05c0,.81,.37,1.41,1.11,1.8,.76,.41,1.69,.62,2.78,.62s1.9-.22,2.55-.65c.65-.41,.98-.98,.98-1.7,0-.59-.22-1.08-.65-1.47-.41-.39-1.26-.63-2.52-.72-.89-.07-1.72-.16-2.49-.29-.63,.35-1.09,.73-1.38,1.15-.26,.41-.39,.84-.39,1.28Zm17.96-20.76c-.76,0-1.4-.23-1.9-.69-.48-.46-.72-1.04-.72-1.74s.24-1.27,.72-1.7c.5-.46,1.14-.69,1.9-.69s1.39,.23,1.87,.69c.5,.44,.75,1,.75,1.7s-.25,1.28-.75,1.74c-.48,.46-1.1,.69-1.87,.69Zm-2.1,18.76v-16.24h4.19v16.24h-4.19Zm8.57,0v-16.24h3.73l.39,3.05c.59-1.05,1.39-1.88,2.39-2.49,1.03-.63,2.23-.95,3.6-.95v4.42h-1.18c-.92,0-1.74,.14-2.46,.43-.72,.28-1.29,.77-1.7,1.47-.39,.7-.59,1.67-.59,2.91v7.4h-4.19Zm12.98,0v-23.58h4.19v23.58h-4.19Z"/><path class="cls-1" d="M752.49,94.91c-2.44,0-4.53-.52-6.28-1.55-1.75-1.06-3.09-2.52-4.04-4.38-.94-1.89-1.41-4.06-1.41-6.52s.47-4.63,1.41-6.52c.94-1.89,2.29-3.36,4.04-4.41,1.75-1.06,3.84-1.59,6.28-1.59,2.9,0,5.27,.72,7.1,2.17,1.86,1.43,3.02,3.44,3.48,6.04h-4.86c-.3-1.31-.94-2.33-1.93-3.07-.97-.76-2.25-1.14-3.86-1.14-2.23,0-3.98,.76-5.24,2.28-1.26,1.52-1.9,3.6-1.9,6.24s.63,4.73,1.9,6.24c1.27,1.5,3.01,2.24,5.24,2.24,1.61,0,2.9-.34,3.86-1.03,.99-.71,1.63-1.69,1.93-2.93h4.86c-.46,2.48-1.62,4.43-3.48,5.83-1.84,1.4-4.21,2.1-7.1,2.1Zm22.6,0c-1.65,0-3.15-.38-4.48-1.14-1.31-.76-2.36-1.81-3.14-3.14-.76-1.36-1.14-2.92-1.14-4.69s.39-3.32,1.17-4.66c.78-1.36,1.83-2.42,3.14-3.17,1.33-.76,2.83-1.14,4.48-1.14s3.1,.38,4.41,1.14c1.33,.76,2.38,1.82,3.14,3.17,.78,1.33,1.17,2.89,1.17,4.66s-.39,3.33-1.17,4.69c-.76,1.33-1.81,2.38-3.14,3.14-1.33,.76-2.82,1.14-4.45,1.14Zm0-3.83c1.15,0,2.15-.42,3-1.28,.85-.87,1.28-2.16,1.28-3.86s-.43-2.98-1.28-3.83c-.85-.87-1.84-1.31-2.97-1.31s-2.18,.44-3.04,1.31c-.83,.85-1.24,2.13-1.24,3.83s.41,2.99,1.24,3.86c.85,.85,1.85,1.28,3,1.28Zm12.71,3.42v-17.11h3.9l.38,2.31c.55-.83,1.28-1.48,2.17-1.97,.92-.51,1.98-.76,3.17-.76,2.64,0,4.52,1.02,5.62,3.07,.62-.94,1.45-1.69,2.48-2.24,1.06-.55,2.21-.83,3.45-.83,2.23,0,3.94,.67,5.14,2,1.2,1.33,1.79,3.29,1.79,5.86v9.66h-4.42v-9.24c0-1.47-.29-2.6-.86-3.38-.55-.78-1.41-1.17-2.59-1.17s-2.16,.44-2.9,1.31c-.71,.87-1.07,2.09-1.07,3.66v8.83h-4.41v-9.24c0-1.47-.29-2.6-.86-3.38-.57-.78-1.46-1.17-2.65-1.17s-2.13,.44-2.86,1.31c-.71,.87-1.07,2.09-1.07,3.66v8.83h-4.41Zm32.3,7.59v-24.7h3.93l.48,2.45c.55-.76,1.28-1.43,2.17-2,.92-.57,2.1-.86,3.55-.86,1.61,0,3.05,.39,4.31,1.17,1.26,.78,2.26,1.85,3,3.21,.74,1.36,1.1,2.9,1.1,4.62s-.37,3.27-1.1,4.62c-.74,1.33-1.74,2.39-3,3.17-1.26,.76-2.7,1.14-4.31,1.14-1.29,0-2.41-.24-3.38-.72s-1.75-1.16-2.35-2.04v9.93h-4.41Zm9.21-11.04c1.4,0,2.56-.47,3.48-1.42,.92-.94,1.38-2.16,1.38-3.66s-.46-2.72-1.38-3.69c-.92-.97-2.08-1.45-3.48-1.45s-2.6,.48-3.52,1.45c-.9,.94-1.35,2.16-1.35,3.66s.45,2.73,1.35,3.69c.92,.94,2.09,1.42,3.52,1.42Zm19.19,3.86c-1.47,0-2.68-.23-3.62-.69-.94-.48-1.64-1.11-2.1-1.9-.46-.78-.69-1.64-.69-2.59,0-1.59,.62-2.87,1.86-3.86,1.24-.99,3.1-1.48,5.59-1.48h4.34v-.41c0-1.17-.33-2.04-1-2.59-.67-.55-1.49-.83-2.48-.83-.9,0-1.68,.22-2.35,.66-.67,.41-1.08,1.03-1.24,1.86h-4.31c.11-1.24,.53-2.32,1.24-3.24,.74-.92,1.68-1.62,2.83-2.1,1.15-.51,2.44-.76,3.86-.76,2.44,0,4.36,.61,5.76,1.83,1.4,1.22,2.1,2.94,2.1,5.17v10.52h-3.76l-.41-2.76c-.51,.92-1.22,1.68-2.14,2.28-.9,.6-2.06,.9-3.48,.9Zm1-3.45c1.27,0,2.24-.41,2.93-1.24,.71-.83,1.16-1.85,1.35-3.07h-3.76c-1.17,0-2.01,.22-2.52,.65-.51,.41-.76,.93-.76,1.55,0,.67,.25,1.18,.76,1.55,.51,.37,1.17,.55,2,.55Zm13.01,3.04v-17.11h3.9l.35,2.9c.53-1.01,1.29-1.82,2.28-2.41,1.01-.6,2.2-.9,3.55-.9,2.11,0,3.76,.67,4.93,2,1.17,1.33,1.76,3.29,1.76,5.86v9.66h-4.41v-9.24c0-1.47-.3-2.6-.9-3.38-.6-.78-1.53-1.17-2.79-1.17s-2.27,.44-3.07,1.31c-.78,.87-1.17,2.09-1.17,3.66v8.83h-4.42Zm22.55,7.59l3.97-8.73h-1.03l-6.66-15.97h4.79l4.79,12.04,5-12.04h4.69l-10.86,24.7h-4.69Z"/><g><path class="cls-1" d="M752.57,65.68c-1.1-.02-2-.02-2.89-.07-.96-.05-1.92-.15-2.88-.24-.65-.06-1.3-.12-1.95-.24-.74-.14-1.44-.43-2.1-.8-.89-.5-1.67-1.12-2.36-1.86-.78-.83-1.43-1.75-1.9-2.79-.29-.65-.51-1.33-.62-2.03-.06-.37-.08-.75-.11-1.12-.06-.69-.12-1.39-.17-2.08-.04-.57-.09-1.14-.12-1.72-.05-.85-.11-1.7-.14-2.55-.02-.83-.05-1.66,0-2.48,.06-.97,.4-1.87,.91-2.71,.74-1.23,1.72-2.25,2.82-3.16,.81-.67,1.68-1.24,2.62-1.7,.88-.43,1.82-.7,2.8-.79,.6-.06,1.19-.14,1.78-.2,.69-.07,1.39-.13,2.08-.17,.68-.04,1.36-.07,2.03-.07,.68,0,1.36,.03,2.04,.05,.32,.01,.64,.02,.96,.05,.63,.05,1.27,.09,1.9,.16,.83,.1,1.65,.21,2.47,.36,.47,.09,.92,.27,1.37,.43,.72,.26,1.39,.64,2.03,1.06,.47,.32,.92,.66,1.36,1.02,.64,.53,1.22,1.13,1.73,1.79,.82,1.05,1.4,2.2,1.47,3.55,.04,.83,0,1.67-.01,2.5,0,.32-.03,.64-.04,.96-.03,.77-.04,1.54-.08,2.31-.06,1.03-.14,2.07-.21,3.1-.04,.53-.07,1.07-.16,1.6-.16,.93-.46,1.81-.96,2.61-.37,.6-.75,1.19-1.2,1.73-.69,.83-1.5,1.53-2.44,2.08-.74,.43-1.52,.75-2.36,.88-.71,.11-1.42,.17-2.13,.24-.87,.08-1.73,.14-2.6,.18-1.05,.05-2.1,.07-2.94,.1Zm-.07-24.62c-.76,.03-1.56,.05-2.36,.1-.57,.03-1.14,.09-1.71,.14-.58,.06-1.16,.13-1.75,.19-.56,.06-1.1,.2-1.63,.42-.93,.39-1.77,.93-2.55,1.57-.96,.78-1.82,1.66-2.44,2.76-.39,.69-.64,1.42-.61,2.22,.03,1.12,.06,2.23,.11,3.35,.03,.68,.07,1.36,.12,2.03,.07,.95,.18,1.89,.24,2.84,.05,.79,.28,1.53,.65,2.22,.73,1.39,1.76,2.51,3.1,3.33,.61,.38,1.27,.68,1.99,.77,1.15,.14,2.31,.23,3.46,.31,.88,.06,1.76,.09,2.65,.1,.93,.01,1.87-.01,2.8-.04,.57-.02,1.13-.06,1.7-.11,.88-.08,1.76-.17,2.63-.25,.8-.07,1.53-.35,2.2-.76,.92-.57,1.69-1.3,2.32-2.18,.66-.91,1.14-1.91,1.3-3.03,.09-.64,.11-1.29,.15-1.94,.07-1.03,.16-2.05,.21-3.08,.05-1.25,.07-2.51,.08-3.76,0-.37,0-.76-.1-1.12-.21-.88-.7-1.62-1.28-2.29-.93-1.06-2.01-1.92-3.26-2.58-.54-.28-1.09-.53-1.69-.65-.3-.06-.59-.12-.89-.16-.89-.11-1.79-.24-2.68-.31-.9-.07-1.81-.07-2.76-.11Z"/><path class="cls-1" d="M769.16,43.2c.21,.27,.42,.55,.65,.84,.23-.3,.44-.57,.68-.88,.02,.08,.03,.12,.03,.16,0,.35,0,.7,0,1.06,0,.11-.01,.2-.16,.19-.13,0-.14-.09-.14-.19,0-.09,0-.18-.04-.29-.12,.14-.23,.28-.37,.45-.13-.16-.24-.3-.35-.44-.02,0-.03,0-.05,0,0,.11,.01,.23,0,.34,0,.05-.08,.11-.12,.12-.05,0-.15-.05-.15-.08-.01-.42,0-.84,0-1.26,.01,0,.03,0,.04-.01Z"/><path class="cls-1" d="M768.32,44c0-.12,0-.25,0-.37,0-.12-.05-.18-.17-.18-.11,0-.2-.02-.19-.16,0-.13,.1-.14,.19-.14,.22,0,.43,0,.65,0,.06,0,.13,.08,.15,.13,.03,.1-.04,.16-.14,.16-.15,0-.19,.08-.18,.21,0,.24,0,.48,0,.72,0,.1-.01,.18-.15,.19-.13,0-.15-.07-.15-.18,0-.13,0-.26,0-.39h0Z"/><path class="cls-1" d="M747.95,48.22c-.08,.17-.14,.3-.19,.43-.42,1.1-.85,2.2-1.27,3.3-.43,1.11-.86,2.22-1.28,3.34-.18,.47-.33,.94-.47,1.42-.06,.2-.09,.41-.1,.62-.02,.54,.25,.87,.78,.99,.19,.04,.39,.06,.59,.08,.15,.01,.19,.08,.19,.22,0,.14,0,.3-.19,.3-.23,0-.47-.02-.7-.02-.83,0-1.67,.01-2.5,.02-.08,0-.16-.01-.24-.02-.09,0-.21,.03-.22-.12,0-.13-.03-.26,.14-.32,.7-.26,1.04-.84,1.3-1.49,.47-1.16,.91-2.32,1.37-3.48,.28-.72,.56-1.45,.84-2.18,.21-.55,.43-1.09,.64-1.64,.21-.53,.41-1.07,.61-1.61,.26-.67,.52-1.33,.78-2,.05-.14,.11-.28,.16-.42,.04-.11,.11-.15,.23-.15,.12,0,.18,.05,.22,.16,.43,1.12,.87,2.23,1.31,3.34,.39,1,.79,2.01,1.19,3.01,.41,1.05,.82,2.1,1.23,3.16,.16,.42,.28,.86,.43,1.28,.51,1.35,1.57,2.18,3.05,2.3,.45,.03,.9,.03,1.35-.05,.47-.08,.87-.31,1.24-.6,.22-.17,.33-.41,.33-.68,0-.84,0-1.68-.03-2.52-.01-.33-.09-.67-.42-.84-.15-.08-.34-.12-.51-.15-.21-.04-.43-.05-.64-.09-.07-.01-.17-.08-.18-.13-.03-.1-.06-.25,.09-.3,.13-.05,.28-.11,.41-.11,1.01,0,2.01,.02,3.02,.03,.36,0,.73-.03,1.09-.03,.07,0,.21,.06,.21,.09,0,.11-.01,.25-.08,.33-.07,.08-.21,.13-.32,.16-.42,.11-.5,.18-.5,.62-.02,1.41-.03,2.83-.04,4.24,0,.31-.01,.32-.31,.32-.34,0-.42-.07-.49-.41-.04-.17-.1-.33-.16-.49-.05-.12-.13-.15-.25-.07-.24,.17-.47,.34-.72,.49-.54,.34-1.1,.61-1.75,.67-.49,.04-.99,.09-1.47,.05-.59-.04-1.18-.14-1.75-.36-.7-.26-1.33-.64-1.87-1.16-.65-.62-1.1-1.37-1.4-2.21-.13-.38-.23-.77-.37-1.14-.27-.73-.55-1.45-.82-2.18-.28-.75-.56-1.5-.85-2.25-.19-.51-.38-1.01-.58-1.52-.02-.06-.06-.12-.11-.22Z"/><path class="cls-1" d="M760.88,46.41c0,1.14,0,2.27,0,3.41,0,.36-.41,.63-.74,.49-.05-.02-.09-.11-.1-.18-.1-.42-.19-.84-.29-1.26-.28-1.17-1.05-1.87-2.12-2.32-.51-.21-1.04-.27-1.57-.3-.08,0-.22-.05-.23-.09-.02-.09,.03-.2,.06-.3,.02-.07,.09-.14,.1-.21,0-.16,.09-.17,.22-.18,1.07-.06,2.03,.26,2.91,.85,.21,.14,.42,.28,.63,.42,.21,.14,.27,.11,.32-.13,.01-.07,.04-.15,.03-.22,0-.17,.06-.28,.22-.35,.06-.02,.11-.1,.13-.16,.05-.22,.22-.16,.36-.16,.15,0,.12,.13,.13,.22,0,.15,0,.31,0,.46-.01,0-.03,0-.04,0Z"/></g></g></g></g></svg>