<?xml version="1.0" encoding="UTF-8"?><svg id="Layer_2" xmlns="http://www.w3.org/2000/svg" viewBox="0 0 475.11 475.11"><defs><style>.cls-1{fill:#005eff;}</style></defs><g id="Layer_1-2"><path class="cls-1" d="M429.05,37.21C403.82,14.1,370.2,0,333.3,0H141.84C63.51,0,0,63.51,0,141.84v191.65c0,37.41,14.48,71.41,38.13,96.77,24.22,25.93,58.08,42.8,95.88,44.85h199.29c78.3,0,141.81-63.51,141.81-141.84V141.84c0-41.43-17.76-78.69-46.06-104.62ZM213.32,337.08c-.79,2.12-2.02,4.07-3.66,5.71l-5.74,5.76-39.28,39.48c-9.54,9.62-25.93,4.05-27.67-9.4-.92-7.09-1.83-14.19-2.75-21.28-.48-3.69-2.17-6.99-4.65-9.47-2.51-2.48-5.81-4.17-9.5-4.63-7.11-.87-14.22-1.74-21.33-2.63-13.42-1.64-19.09-18.03-9.54-27.62l35-35.19,10-10.05c1.76-1.78,3.86-3.08,6.15-3.88,3.98-1.4,8.48-1.25,12.56,.72,10.68,5.23,22.08,9.25,33.96,9.13,3.01-.02,5.88,.77,8.34,2.17,1.23,.7,2.36,1.57,3.37,2.58,2,2,3.49,4.51,4.24,7.33l3.04,11.35,7.98,29.96c.89,3.35,.7,6.82-.51,9.95Zm80.98-79.39l-13.14,13.21-4.51,4.51-27.36,27.52c-9.54,9.59-25.96,4.02-27.69-9.4-.92-7.11-1.83-14.22-2.75-21.31-.24-1.93-.82-3.74-1.66-5.37v-.02c-.79-1.52-1.81-2.89-2.99-4.07-2.51-2.48-5.81-4.14-9.5-4.6-7.11-.87-14.22-1.76-21.31-2.63-13.45-1.66-19.11-18.05-9.57-27.64l24.32-24.44,10.94-11.01,9.74-9.79c4.1-4.1,10.05-5.74,15.67-4.27,9.5,2.48,18.99,4.97,28.49,7.42,4.29,1.13,8.58,2.24,12.85,3.37,1.9,.48,3.64,1.3,5.21,2.39,.77,.53,1.49,1.16,2.17,1.81,2,2,3.5,4.51,4.24,7.35l.99,3.66,2.55,9.57,7.5,28.05c1.49,5.62-.12,11.57-4.19,15.69Zm84.64-85.13l-25.26,25.4-19.74,19.84c-9.54,9.62-25.96,4.05-27.69-9.4-.36-2.94-.75-5.93-1.13-8.89-.53-4.12-1.06-8.27-1.59-12.41-.48-3.69-2.17-6.97-4.68-9.45-2.48-2.48-5.81-4.17-9.5-4.63l-3.62-.43c-5.91-.72-11.81-1.47-17.69-2.17-13.42-1.66-19.09-18.05-9.54-27.64l24.95-25.09,20.05-20.15c4.07-4.12,10.03-5.74,15.64-4.29,13.79,3.62,27.57,7.21,41.36,10.8,2.82,.75,5.35,2.22,7.38,4.22,2,2,3.47,4.51,4.24,7.35l11.01,41.29c1.49,5.59-.1,11.57-4.19,15.67Z"/></g></svg>